<?xml version="1.0" encoding="utf-8"?>
<!-- Generator: $$$/GeneralStr/196=Adobe Illustrator 27.6.0, SVG Export Plug-In . SVG Version: 6.00 Build 0)  -->
<svg version="1.1" id="图层_1" xmlns="http://www.w3.org/2000/svg" xmlns:xlink="http://www.w3.org/1999/xlink" x="0px" y="0px"
	 viewBox="0 0 500 600" style="enable-background:new 0 0 500 600;" xml:space="preserve">
<style type="text/css">
	.st0{fill:#E8F0FA;}
	.st1{fill:#B3DDF6;}
</style>
<path class="st0" d="M13.78,183.83c0-9.18,7.44-16.61,16.61-16.61h439.22c9.18,0,16.61,7.44,16.61,16.61v116.94H13.78V183.83z"/>
<path class="st1" d="M13.78,299.23h472.44v116.94c0,9.18-7.44,16.61-16.61,16.61H30.39c-9.18,0-16.61-7.44-16.61-16.61V299.23z"/>
<g>
	<path d="M68.73,233.99h-0.28l-0.16-0.03l-0.25-0.03c-0.02-0.02-0.06-0.03-0.11-0.03c-0.05,0-0.09,0.03-0.11,0.09l-3.42-0.03
		c-0.13,0.04-0.23,0.03-0.31-0.03c-0.02,0-0.05,0.01-0.09,0.03s-0.16,0.03-0.34,0.03l-0.13-0.03l-0.1-0.06h-0.38l-0.25,0.03
		c-0.08,0-0.15-0.01-0.19-0.03c-0.04,0.02-0.14,0.03-0.28,0.03c-0.02,0-0.06-0.01-0.11-0.02c-0.05-0.01-0.09-0.02-0.13-0.02
		c-0.03,0-0.06,0.01-0.08,0.03c-0.06,0.04-0.1,0.06-0.13,0.06c-0.21-0.02-0.49-0.01-0.85,0.03l-0.69-0.03l-0.03-0.06
		c-0.25-0.04-0.42-0.16-0.5-0.35c-0.4-0.56-0.59-1.14-0.56-1.73v-0.38l0.16-0.19h-0.03l0.16-0.22c0-0.25,0.02-0.56,0.06-0.94l0.09-1
		v-0.53c0-0.04,0-0.1,0.02-0.19c0.01-0.08,0.02-0.15,0.02-0.2c0-0.05,0-0.16,0.02-0.31c0.01-0.16,0.02-0.28,0.02-0.36
		c0-0.48,0.02-0.94,0.06-1.38l0.09-0.94c0.06-0.23,0.07-0.51,0.03-0.85l0.28-3.01c0-0.5,0.01-0.82,0.03-0.94
		c0.04-0.38,0.06-0.69,0.06-0.94l0.28-2.89l0.41-3.73c0-0.02-0.01-0.06-0.03-0.13c-0.48,0.02-0.79-0.19-0.94-0.63
		c-0.06-0.44-0.13-0.74-0.19-0.91v-0.94c0.08-0.17,0.14-0.34,0.16-0.53l3.04,0.03l0.03,0.09L68,210.1c0.25-0.02,0.49-0.02,0.72,0
		c0.04,0,0.1,0.01,0.19,0.02c0.08,0.01,0.14,0.02,0.16,0.02c0.08,0.02,0.21,0.03,0.38,0.03h0.85l2.85,0.13
		c0.44,0.02,0.72,0.03,0.85,0.03h0.22c0.21,0,0.37,0.01,0.47,0.03h0.63c0.29,0,0.48,0.01,0.56,0.03h0.25
		c0.79,0.02,1.24,0.24,1.35,0.66c0.02,0.1,0.04,0.35,0.06,0.72v0.5c-0.02,0.65-0.25,0.98-0.69,1c-0.29,0-0.55-0.02-0.77-0.05
		c-0.22-0.03-0.44-0.05-0.67-0.05l-0.13,0.06h-0.6c-0.1,0-0.17,0-0.2-0.02c-0.03-0.01-0.06-0.03-0.08-0.05h-1.91
		c-0.17-0.08-0.39-0.13-0.66-0.13h-0.82c-0.82,0.04-1.38,0.01-1.69-0.09c-2.17-0.06-3.66-0.12-4.45-0.19c-0.4,0-0.81-0.02-1.22-0.06
		c-0.08,0-0.25-0.01-0.5-0.03c-0.17,0-0.27,0-0.31,0h-0.13l-0.69,7.25v1.22c0.23,0,0.48-0.01,0.75-0.03h3.58
		c0.15,0,0.51,0.01,1.1,0.03l3.76,0.13c0.56,0.02,0.92,0.03,1.07,0.03h1.63l0.97,0.06c0.21,0.02,0.44,0.03,0.69,0.03
		c0.06,0.02,0.11,0.03,0.16,0.03c0.5,0.06,0.76,0.28,0.78,0.66c0,0.02,0.01,0.1,0.03,0.25l0.09,0.5c0,0.13-0.04,0.48-0.13,1.07
		c-0.06,0.27-0.24,0.4-0.53,0.38h-0.09c-0.04,0.02-0.15,0.03-0.31,0.03h-0.35c-0.4,0-0.8-0.02-1.21-0.05s-0.8-0.05-1.18-0.05
		l-1.63-0.06c-2.22-0.1-4.4-0.16-6.56-0.16c-0.42,0-0.84,0.01-1.25,0.03c-0.02,0-0.05,0-0.09,0c-0.61,0.04-1.08,0.05-1.41,0.03
		l-0.28,3.51c0,0.67-0.02,1.28-0.06,1.82c-0.04,0.5-0.06,1-0.06,1.51l0.03,0.16h2.35c1.99,0,3.96-0.03,5.93-0.09l1.51-0.06
		c1.42-0.06,2.92-0.09,4.49-0.09h0.69c0.67,0.12,0.97,0.39,0.91,0.78l0.03,0.35l0.06,0.09v0.72c0,0.17-0.01,0.28-0.03,0.34
		c0,0.02,0,0.04,0,0.06c-0.02,0.08-0.03,0.14-0.03,0.16c-0.13,0.19-0.46,0.29-1,0.31c-0.63,0.04-1.22,0.06-1.79,0.06h-0.23
		l-0.19-0.06c-0.25,0-0.54,0.03-0.88,0.09c-0.02,0-0.06,0.01-0.13,0.02c-0.06,0.01-0.12,0.02-0.16,0.02
		c-0.21,0.04-0.4,0.06-0.56,0.06h-1.07c-0.13,0-0.22,0.01-0.28,0.03c-0.13,0.13-0.22,0.19-0.28,0.19c-0.19,0-0.31-0.01-0.38-0.03
		c-0.02,0-0.04-0.01-0.06-0.02c-0.02-0.01-0.04-0.02-0.06-0.02l-0.34-0.05c0,0.02-0.02,0.03-0.06,0.03
		c-0.06,0.06-0.12,0.08-0.19,0.06c-0.06,0.02-0.15,0.03-0.25,0.03l-0.31-0.06l-0.04-0.06h-0.19
		C68.92,233.9,68.84,233.93,68.73,233.99z"/>
	<path d="M78.96,226.94c-0.02-1.3,0.41-2.74,1.29-4.33l1.85-1.79c0.65-0.35,1.61-0.58,2.89-0.69c1.09-0.02,1.82,0.04,2.2,0.19
		c0.46,0.13,1,0.46,1.63,1c0.04-1.38,0.06-2.45,0.06-3.2l0.06-3.51c0-0.17,0.03-0.43,0.09-0.78c0.02-0.13,0.03-0.22,0.03-0.28
		c0.13-0.69,0.17-1.19,0.13-1.51l0.41-2.76h0.97c0.27,0.06,0.43,0.4,0.47,1v0.63l-0.28,2.01c-0.02,0.17-0.03,0.48-0.03,0.94
		c0.02,0.56-0.03,1.07-0.16,1.51v8.78c0.06,0.92,0.14,1.68,0.22,2.29l0.19,2.16c0.04,0.38,0.36,0.78,0.94,1.22h-0.03
		c0.04,0.04,0.08,0.06,0.13,0.06c0.08,0.02,0.21,0.11,0.38,0.28c0,0.02,0.01,0.04,0.03,0.06v0.03c0.23,0.63,0.35,1.22,0.35,1.79
		v0.22c-0.29,0.5-0.88,0.4-1.76-0.31l-0.47-0.53v0.03c-0.08-0.04-0.15-0.09-0.19-0.16c0,0.02-0.02,0.05-0.06,0.09l-0.19,0.31
		c0.02,0.13-0.06,0.24-0.25,0.35l-0.56,0.47c-0.04,0.04-0.1,0.09-0.19,0.16c-0.17,0.13-0.29,0.23-0.38,0.31
		c-0.33,0.29-0.93,0.58-1.79,0.85c-0.06,0.08-0.19,0.12-0.38,0.09h-0.47c-0.33,0.04-0.62,0.06-0.85,0.06h-0.31
		c-0.13,0-0.21-0.01-0.25-0.03c0-0.06-0.07-0.02-0.22,0.13l-0.03-0.09l-0.19,0.19c0.02-0.25-0.19-0.41-0.63-0.47
		c-0.17-0.02-0.32-0.04-0.47-0.06l-0.25-0.19v0.03c-0.23-0.13-0.52-0.31-0.88-0.56C79.99,231.57,78.98,229.57,78.96,226.94z
		 M80.62,227.78c0.23,2.01,1.64,3.16,4.23,3.45c1.25-0.04,2.36-0.59,3.32-1.63c0.1-0.1,0.28-0.43,0.53-0.97
		c0.02-0.02,0.04-0.05,0.05-0.08s0.02-0.06,0.02-0.08c0.21-0.13,0.32-0.25,0.35-0.38l-0.06-0.19v0.03
		c-0.02-0.04-0.03-0.14-0.03-0.28l-0.28-3.89c0.02,0-0.03-0.04-0.16-0.13l-0.22-0.31l-0.13-0.25l-0.03-0.13
		c-0.44-0.5-1.09-0.75-1.94-0.75h-0.31l0.03-0.03l-0.16,0.13c-0.08,0-0.16-0.01-0.22-0.03c-0.02-0.02-0.04-0.03-0.06-0.03
		s-0.05-0.01-0.09-0.03c-1.02,0-2,0.48-2.92,1.44l-0.41,0.35l-0.35,0.56c-0.1,0.15-0.23,0.37-0.38,0.66
		c-0.06,0.1-0.1,0.18-0.13,0.22C80.84,226.39,80.62,227.18,80.62,227.78z"/>
	<path d="M96.49,229.82v-0.63l0.38-5.36c-0.1,0-0.26,0-0.47-0.02c-0.21-0.01-0.38-0.02-0.5-0.02c-0.36-0.02-0.74-0.03-1.16-0.03
		l-0.06-0.19v0.03c-0.42-0.61-0.63-1.25-0.63-1.94c0.02-0.4,0.19-0.61,0.5-0.63c0.02,0.02,0.07,0.04,0.14,0.05
		c0.07,0.01,0.17,0.02,0.3,0.02c0.82,0,1.57-0.13,2.26-0.38c0.42-0.27,0.83-0.46,1.22-0.56c0.15,0,0.25,0.02,0.31,0.06l0.28,0.13
		h0.09c0.27,0.31,0.42,0.67,0.44,1.07v0.69c0,0.25-0.01,0.44-0.03,0.56c-0.23,0.17-0.4,0.46-0.5,0.88
		c-0.02,0.02-0.04,0.05-0.05,0.09s-0.03,0.08-0.05,0.13c-0.02,0.04-0.03,0.1-0.03,0.19c-0.04,0.19-0.1,0.32-0.19,0.41l-0.28,2.89
		c0,0.38-0.03,1.09-0.09,2.13v0.16l-0.09,0.75c-0.06,0.42-0.08,0.66-0.06,0.72c0.63-0.46,1.18-0.69,1.66-0.69
		c0.9,0,1.34,0.58,1.32,1.73v0.31c-0.02,0.38-0.26,0.59-0.72,0.63c-0.02,0-0.07,0.01-0.14,0.03s-0.14,0.04-0.2,0.06v-0.03
		l-0.16,0.16c-0.56,0.54-1.12,0.8-1.66,0.78c-0.31,0.02-0.6-0.15-0.85-0.5c-0.4-0.54-0.66-1.08-0.78-1.6
		C96.55,231.43,96.49,230.74,96.49,229.82z M95.58,216.02v-0.06c-0.04-0.33,0.09-0.56,0.41-0.69c0.33,0,0.68,0.07,1.04,0.22
		l0.44,0.22h0.31c1.13,0.02,1.64,0.48,1.54,1.38v0.28c0.04,0.71-0.14,1.09-0.53,1.13c-0.02,0.02-0.05,0.04-0.09,0.06h-0.41
		c-0.65-0.04-1.27-0.19-1.85-0.44C95.99,217.56,95.71,216.86,95.58,216.02z"/>
	<path d="M105.74,227.82c0-1.69,0.29-3.68,0.88-5.96v-0.53c-0.06,0-0.1-0.01-0.13-0.03l-0.88-0.13c-0.13,0-0.23-0.02-0.31-0.06
		l-1.22-0.22l-0.44-0.09c-0.31-0.56-0.48-1.17-0.5-1.82v-0.38l0.13-0.25c0.13-0.19,0.29-0.28,0.5-0.28c1,0.31,2.11,0.47,3.32,0.47
		h0.13l1.69-6.46c0.04-0.4,0.23-0.56,0.56-0.5c0.63,0.02,0.95,0.44,0.97,1.25c0,0.42-0.09,0.94-0.28,1.57
		c-0.15,0.42-0.31,1.01-0.5,1.79l-0.13,0.6l-0.09,0.5l-0.13,0.72l-0.09,0.69c0.69,0.13,1.69,0.18,3.01,0.16c0.1,0,0.26,0,0.47-0.02
		c0.21-0.01,0.37-0.02,0.47-0.02h0.82c0.52,0.13,0.85,0.24,0.97,0.34c0.06,0.17,0.13,0.39,0.19,0.66c0.02,0.04,0.03,0.13,0.03,0.25
		v0.16c0,0.13-0.02,0.24-0.06,0.35c0,0.02-0.01,0.05-0.02,0.09c-0.01,0.04-0.02,0.07-0.02,0.09l-0.09,0.5
		c-0.02,0.13-0.14,0.21-0.35,0.25c0,0.02-0.01,0.03-0.03,0.03s-0.04,0-0.05,0s-0.03,0.01-0.06,0.02c-0.03,0.01-0.07,0.02-0.11,0.02
		c-0.15,0.02-0.39,0.03-0.72,0.03h-0.91c-1.38,0.02-2.74-0.03-4.08-0.16c-0.02,0.02-0.03,0.04-0.03,0.06
		c-0.02,0.06-0.03,0.11-0.03,0.16l-0.25,1.35l-0.22,1.1c-0.33,1.63-0.54,2.93-0.63,3.89v1.44l0.03,0.53l0.06,0.41
		c0.02,0.06,0.03,0.17,0.03,0.31h-0.06c0.06,0.1,0.13,0.27,0.19,0.5c0.1,0.02,0.26,0.06,0.46,0.13c0.2,0.06,0.35,0.1,0.45,0.13
		c0.36-0.08,0.79-0.42,1.32-1c0-0.02,0.01-0.04,0.03-0.06s0.03-0.05,0.03-0.08s0-0.06,0-0.08c0.23-0.79,0.47-1.19,0.72-1.19
		c0.94,0.1,1.47,0.84,1.6,2.2c-0.21,1.59-1.21,2.5-3.01,2.73c-0.96,0-1.74-0.39-2.34-1.18c-0.6-0.78-0.97-1.56-1.11-2.34
		C105.8,229.61,105.74,228.74,105.74,227.82z"/>
	<path d="M117,227.31c0.1-2.38,0.88-4.22,2.32-5.52v0.03c0.1-0.1,0.18-0.2,0.22-0.3c0.04-0.09,0.22-0.25,0.53-0.46
		c1.19-0.71,2.63-1.08,4.33-1.1c0.94,0.04,2.03,0.42,3.26,1.13c0.36,0.21,0.78,0.66,1.29,1.35c0.02,0.04,0.04,0.07,0.06,0.09
		c0.1,0.21,0.29,0.46,0.56,0.75c0.42,1.21,0.63,2.33,0.63,3.36c0,0.75-0.05,1.47-0.16,2.16c0,0.04-0.01,0.1-0.02,0.19
		c-0.01,0.08-0.02,0.14-0.02,0.16c-0.02,0.13-0.03,0.24-0.03,0.35c-0.02,0.29-0.08,0.53-0.19,0.72l-0.19,0.66
		c-0.77,2.09-2.9,3.12-6.37,3.07h-0.85C119.09,233.5,117.29,231.29,117,227.31z M118.85,227.97v0.53c0.84,1.46,2.03,2.23,3.58,2.29
		h0.72c0.15,0,0.32-0.01,0.53-0.03c0.02,0,0.04-0.01,0.06-0.03c0.13-0.13,0.39-0.19,0.78-0.19c0.1,0,0.19-0.01,0.25-0.03
		c0.29-0.02,0.6-0.07,0.93-0.14c0.32-0.07,0.63-0.24,0.92-0.49c1.17-0.86,1.76-2.11,1.76-3.76c-0.17-1.05-1.05-1.93-2.63-2.67
		c-0.06,0.02-0.13,0-0.19-0.06v0.03l-0.35-0.09h-0.5c-0.5-0.02-1.22,0.1-2.16,0.38l-0.53,0.13l-0.94,0.19l-0.31,0.22
		c-0.29,0.15-0.46,0.24-0.5,0.28h0.03C119.35,225.65,118.87,226.8,118.85,227.97z"/>
	<path d="M134.09,232.36v-5.49c-0.02-0.25-0.05-0.47-0.09-0.66v-0.25l-0.28-3.26c-0.04-0.04-0.06-0.13-0.06-0.25
		c0-0.04-0.05-0.17-0.16-0.38c-0.04-0.04-0.06-0.07-0.06-0.09c-0.29-0.69-0.42-1.26-0.38-1.73c0.1-0.31,0.23-0.48,0.38-0.5
		c0.36,0.02,0.61,0.05,0.75,0.09l0.25,0.28v0.09c0.02,0.02,0.04,0.08,0.06,0.19c0-0.04,0.01-0.02,0.03,0.06l0.09,0.19
		c0.19,0.19,0.3,0.43,0.34,0.72c0.13,0.44,0.22,0.86,0.28,1.25l0.06,0.16v-0.03c0,0.02,0.01,0.04,0.03,0.06
		c0.04,0.08,0.07,0.18,0.09,0.28c0.9-1.57,2.16-2.36,3.79-2.38c1.42,0.23,2.22,0.53,2.38,0.91c-0.02,0-0.02,0.06,0,0.19
		c0.02,0.04,0.03,0.07,0.03,0.09s0,0.06,0.02,0.11c0.01,0.05,0.02,0.09,0.02,0.11v0.16l-0.06,0.13v0.16
		c0.08,0.73-0.13,1.09-0.63,1.07c-0.08,0-0.22-0.06-0.41-0.19h-1.54c-0.02,0.02-0.05,0.04-0.09,0.06l-0.56,0.25
		c-0.71,0.38-1.38,1.32-2.01,2.82c-0.1,0.04-0.19,0.13-0.25,0.25c-0.02,0.02-0.03,0.04-0.03,0.06s-0.01,0.06-0.03,0.12l-0.19,0.66
		l-0.03,0.09v5.99l-0.28,0.16h-0.22c-0.52,0.04-0.88-0.29-1.07-1l-0.09-0.22l-0.06-0.16L134.09,232.36z"/>
</g>
<g>
	<path d="M29.02,223.46l0.58-4.62H27c-1.06-0.09-1.64-0.77-1.73-2.02c0.09-1.25,0.67-1.92,1.73-2.02h3.17l0.72-6.49
		c0.19-1.25,0.91-1.88,2.16-1.88c1.54-0.09,2.16,0.77,1.88,2.6l-0.72,5.77h3.61l0.72-6.49c0.29-1.54,1.1-2.16,2.45-1.88
		c1.25,0.1,1.78,0.96,1.59,2.6l-0.72,5.77h2.6c1.15,0.1,1.78,0.77,1.88,2.02c-0.1,1.25-0.72,1.93-1.88,2.02h-3.03l-0.72,4.62h2.74
		c1.06,0.1,1.63,0.72,1.73,1.88c-0.1,1.25-0.67,1.93-1.73,2.02h-3.17l-0.87,6.49c-0.1,1.44-0.87,2.11-2.31,2.02
		c-1.25-0.19-1.83-1.11-1.73-2.74l0.72-5.77h-3.46l-0.87,6.49c-0.1,1.35-0.87,2.02-2.31,2.02c-1.35-0.1-1.88-1.01-1.59-2.74
		l0.72-5.77h-2.74c-1.06-0.09-1.64-0.77-1.73-2.02c0.09-1.15,0.67-1.78,1.73-1.88H29.02z M33.78,218.84l-0.58,4.62h3.46l0.58-4.62
		H33.78z"/>
</g>
<rect x="146.94" y="206.37" width="1.02" height="31.88"/>
<g>
	<path d="M37.5,327.29h-3.02v8.33h-3.54v-21.75h6.24c4.65,0.14,7.04,2.33,7.18,6.56C44.3,324.93,42.01,327.22,37.5,327.29z
		 M37.5,317.3h-3.02v6.45h3.02c2.22,0.07,3.29-1.04,3.23-3.33C40.72,318.34,39.65,317.3,37.5,317.3z"/>
	<path d="M55.82,320.01l-1.56,3.33c-0.49-0.42-1.01-0.62-1.56-0.62c-1.53,0-2.29,1.35-2.29,4.06v8.85h-3.54v-16.24h3.54v1.46
		c0.83-1.18,1.73-1.77,2.71-1.77C54.22,319,55.12,319.31,55.82,320.01z"/>
	<path d="M66.22,329.79l3.43,1.04c-0.97,3.54-3.12,5.27-6.45,5.2c-4.37-0.14-6.63-2.91-6.76-8.33c0.21-5.55,2.46-8.46,6.76-8.74
		c4.3,0.14,6.49,3.05,6.56,8.74v1.15h-9.68c0.28,2.5,1.32,3.78,3.12,3.85C64.8,332.77,65.81,331.8,66.22,329.79z M60.19,325.52h5.83
		c-0.07-2.08-1.01-3.16-2.81-3.23C61.47,322.36,60.46,323.44,60.19,325.52z"/>
	<path d="M81.1,319.38h3.75l-5.72,16.24h-3.02l-5.41-16.24h3.75l3.23,11.45L81.1,319.38z"/>
	<path d="M87.04,313.87h3.64v4.16h-3.64V313.87z M87.04,319.38h3.64v16.24h-3.64V319.38z"/>
	<path d="M103.17,329.79l3.43,1.04c-0.97,3.54-3.12,5.27-6.45,5.2c-4.37-0.14-6.63-2.91-6.76-8.33c0.21-5.55,2.46-8.46,6.76-8.74
		c4.3,0.14,6.49,3.05,6.56,8.74v1.15h-9.68c0.28,2.5,1.32,3.78,3.12,3.85C101.74,332.77,102.75,331.8,103.17,329.79z M97.13,325.52
		h5.83c-0.07-2.08-1.01-3.16-2.81-3.23C98.41,322.36,97.41,323.44,97.13,325.52z"/>
	<path d="M127,319.38h3.75l-5.52,16.24h-3.75l-2.5-12.07l-2.71,12.07h-3.64l-5-16.24h3.64l3.02,12.28l2.91-12.28h3.75l2.71,12.18
		L127,319.38z"/>
</g>
</svg>
