<?xml version="1.0" encoding="utf-8"?>
<!-- Generator: $$$/GeneralStr/196=Adobe Illustrator 27.6.0, SVG Export Plug-In . SVG Version: 6.00 Build 0)  -->
<svg version="1.1" id="图层_1" xmlns="http://www.w3.org/2000/svg" xmlns:xlink="http://www.w3.org/1999/xlink" x="0px" y="0px"
	 viewBox="0 0 500 600" style="enable-background:new 0 0 500 600;" xml:space="preserve">
<style type="text/css">
	.st0{fill:#B5B5B6;}
	.st1{fill:#2EA7E0;}
	.st2{fill:#DAD9ED;}
	.st3{fill:#FFBFF5;}
	.st4{fill:#BFC4FF;}
	.st5{fill:#D7C9FF;}
	.st6{fill:#55ABFF;}
</style>
<rect class="st0" width="500" height="600"/>
<path class="st1" d="M427.67,546.5H72.33c-8.47,0-15.33-6.86-15.33-15.33V75.83c0-8.47,6.86-15.33,15.33-15.33h355.33
	c8.47,0,15.33,6.86,15.33,15.33v455.33C443,539.64,436.14,546.5,427.67,546.5z"/>
<g>
	<g>
		<g>
			<path class="st2" d="M57,527.67c0,8.47,6.86,15.33,15.33,15.33h355.33c8.47,0,15.33-6.86,15.33-15.33V94H57V527.67z"/>
		</g>
	</g>
</g>
<path class="st3" d="M214.12,184.11H82.99c-1.47,0-2.65-1.19-2.65-2.65v-7.81c0-1.47,1.19-2.65,2.65-2.65h131.14
	c1.47,0,2.65,1.19,2.65,2.65v7.81C216.78,182.92,215.59,184.11,214.12,184.11z"/>
<path class="st4" d="M273,161.44H87c-3.68,0-6.67-2.98-6.67-6.67v-28c0-3.68,2.98-6.67,6.67-6.67h186c3.68,0,6.67,2.98,6.67,6.67v28
	C279.67,158.46,276.68,161.44,273,161.44z"/>
<g>
	<path class="st5" d="M367.22,369H85c-2.58,0-4.67-2.09-4.67-4.67V206.11c0-2.58,2.09-4.67,4.67-4.67h282.22
		c2.58,0,4.67,2.09,4.67,4.67v158.22C371.89,366.91,369.8,369,367.22,369z"/>
	<path class="st6" d="M360.79,226.11H114.1c-1.47,0-2.65-1.19-2.65-2.65v-7.81c0-1.47,1.19-2.65,2.65-2.65h246.69
		c1.47,0,2.65,1.19,2.65,2.65v7.81C363.44,224.92,362.26,226.11,360.79,226.11z"/>
	<path class="st6" d="M361.01,248.17H91.21c-1.47,0-2.65-1.19-2.65-2.65v-7.81c0-1.47,1.19-2.65,2.65-2.65h269.81
		c1.47,0,2.65,1.19,2.65,2.65v7.81C363.67,246.98,362.48,248.17,361.01,248.17z"/>
	<path class="st6" d="M361.01,270.22H91.21c-1.47,0-2.65-1.19-2.65-2.65v-7.81c0-1.47,1.19-2.65,2.65-2.65h269.81
		c1.47,0,2.65,1.19,2.65,2.65v7.81C363.67,269.03,362.48,270.22,361.01,270.22z"/>
	<path class="st6" d="M361.01,292.28H91.21c-1.47,0-2.65-1.19-2.65-2.65v-7.81c0-1.47,1.19-2.65,2.65-2.65h269.81
		c1.47,0,2.65,1.19,2.65,2.65v7.81C363.67,291.09,362.48,292.28,361.01,292.28z"/>
	<path class="st6" d="M189.68,314.33H91.21c-1.47,0-2.65-1.19-2.65-2.65v-7.81c0-1.47,1.19-2.65,2.65-2.65h98.47
		c1.47,0,2.65,1.19,2.65,2.65v7.81C192.33,313.15,191.15,314.33,189.68,314.33z"/>
	<path class="st6" d="M359.9,351.67H228.76c-1.47,0-2.65-1.19-2.65-2.65v-7.81c0-1.47,1.19-2.65,2.65-2.65H359.9
		c1.47,0,2.65,1.19,2.65,2.65v7.81C362.56,350.48,361.37,351.67,359.9,351.67z"/>
</g>
</svg>
