<?xml version="1.0" encoding="utf-8"?>
<!-- Generator: $$$/GeneralStr/196=Adobe Illustrator 27.6.0, SVG Export Plug-In . SVG Version: 6.00 Build 0)  -->
<svg version="1.1" id="图层_1" xmlns="http://www.w3.org/2000/svg" xmlns:xlink="http://www.w3.org/1999/xlink" x="0px" y="0px"
	 viewBox="0 0 500 600" style="enable-background:new 0 0 500 600;" xml:space="preserve">
<style type="text/css">
	.st0{fill:#B5B5B6;}
	.st1{fill:#359DD1;}
	.st2{fill:#D9D8EB;}
	.st3{fill:#459FD2;}
	.st4{fill:#E0E7A7;}
	.st5{fill:#F2C3D7;}
	.st6{fill:#927AB0;}
	.st7{clip-path:url(#SVGID_00000065768656114809403330000013555709214400093853_);}
	.st8{fill:#333333;}
	.st9{fill:#3D2A57;}
	.st10{fill:#100414;}
	.st11{fill:#1D2E5F;}
	.st12{fill:#103E20;}
	.st13{fill:#3D010A;}
	.st14{fill:#EA5C75;}
</style>
<g>
	<rect class="st0" width="500" height="600"/>
	<path class="st1" d="M427.67,546.5H72.33c-8.47,0-15.33-6.86-15.33-15.33V75.83c0-8.47,6.86-15.33,15.33-15.33h355.33
		c8.47,0,15.33,6.86,15.33,15.33v455.33C443,539.64,436.14,546.5,427.67,546.5z"/>
	<g>
		<g>
			<g>
				<path class="st2" d="M57,531.05c0,8.54,6.86,15.45,15.33,15.45h355.33c8.47,0,15.33-6.91,15.33-15.45V94H57V531.05z"/>
			</g>
		</g>
	</g>
	<path class="st3" d="M214.12,184.11H82.99c-1.47,0-2.65-1.19-2.65-2.65v-7.81c0-1.47,1.19-2.65,2.65-2.65h131.14
		c1.47,0,2.65,1.19,2.65,2.65v7.81C216.78,182.92,215.59,184.11,214.12,184.11z"/>
	<path class="st4" d="M273,161.44H87c-3.68,0-6.67-2.98-6.67-6.67v-28c0-3.68,2.98-6.67,6.67-6.67h186c3.68,0,6.67,2.98,6.67,6.67
		v28C279.67,158.46,276.68,161.44,273,161.44z"/>
	<g>
		<path class="st5" d="M367.22,369H85c-2.58,0-4.67-2.09-4.67-4.67V206.11c0-2.58,2.09-4.67,4.67-4.67h282.22
			c2.58,0,4.67,2.09,4.67,4.67v158.22C371.89,366.91,369.8,369,367.22,369z"/>
		<path class="st6" d="M360.79,226.11H114.1c-1.47,0-2.65-1.19-2.65-2.65v-7.81c0-1.47,1.19-2.65,2.65-2.65h246.69
			c1.47,0,2.65,1.19,2.65,2.65v7.81C363.44,224.92,362.26,226.11,360.79,226.11z"/>
		<path class="st6" d="M361.01,248.17H91.21c-1.47,0-2.65-1.19-2.65-2.65v-7.81c0-1.47,1.19-2.65,2.65-2.65h269.81
			c1.47,0,2.65,1.19,2.65,2.65v7.81C363.67,246.98,362.48,248.17,361.01,248.17z"/>
		<path class="st6" d="M361.01,270.22H91.21c-1.47,0-2.65-1.19-2.65-2.65v-7.81c0-1.47,1.19-2.65,2.65-2.65h269.81
			c1.47,0,2.65,1.19,2.65,2.65v7.81C363.67,269.03,362.48,270.22,361.01,270.22z"/>
		<path class="st6" d="M361.01,292.28H91.21c-1.47,0-2.65-1.19-2.65-2.65v-7.81c0-1.47,1.19-2.65,2.65-2.65h269.81
			c1.47,0,2.65,1.19,2.65,2.65v7.81C363.67,291.09,362.48,292.28,361.01,292.28z"/>
		<path class="st6" d="M189.68,314.33H91.21c-1.47,0-2.65-1.19-2.65-2.65v-7.81c0-1.47,1.19-2.65,2.65-2.65h98.47
			c1.47,0,2.65,1.19,2.65,2.65v7.81C192.33,313.15,191.15,314.33,189.68,314.33z"/>
		<path class="st6" d="M359.9,351.67H228.76c-1.47,0-2.65-1.19-2.65-2.65v-7.81c0-1.47,1.19-2.65,2.65-2.65H359.9
			c1.47,0,2.65,1.19,2.65,2.65v7.81C362.56,350.48,361.37,351.67,359.9,351.67z"/>
	</g>
</g>
<g>
	<defs>
		
			<rect id="SVGID_1_" x="-521.67" y="-462.28" transform="matrix(0.9031 0.4294 -0.4294 0.9031 108.2158 91.7994)" width="744.67" height="1496"/>
	</defs>
	<clipPath id="SVGID_00000005251594559947991200000003758629611723117469_">
		<use xlink:href="#SVGID_1_"  style="overflow:visible;"/>
	</clipPath>
	<g style="clip-path:url(#SVGID_00000005251594559947991200000003758629611723117469_);">
		<g>
			<g>
				<path class="st8" d="M0,0v600h500V0H0z M443,94v437.17c0,8.47-6.86,15.33-15.33,15.33H72.33c-8.47,0-15.33-6.86-15.33-15.33V94
					V75.83c0-8.47,6.86-15.33,15.33-15.33h355.33c8.47,0,15.33,6.86,15.33,15.33V94z"/>
				<path class="st9" d="M427.67,60.5H72.33C63.86,60.5,57,67.36,57,75.83V94h386V75.83C443,67.36,436.14,60.5,427.67,60.5z"/>
				<path class="st10" d="M57,531.17c0,8.47,6.86,15.33,15.33,15.33h355.33c8.47,0,15.33-6.86,15.33-15.33V94H57V531.17z
					 M80.33,126.78c0-3.68,2.98-6.67,6.67-6.67h186c3.68,0,6.67,2.98,6.67,6.67v28c0,3.68-2.98,6.67-6.67,6.67H87
					c-3.68,0-6.67-2.98-6.67-6.67V126.78z M80.33,173.65c0-1.47,1.19-2.65,2.65-2.65h131.14c1.47,0,2.65,1.19,2.65,2.65v7.81
					c0,1.47-1.19,2.65-2.65,2.65H82.99c-1.47,0-2.65-1.19-2.65-2.65V173.65z M80.33,206.11c0-2.58,2.09-4.67,4.67-4.67h282.22
					c2.58,0,4.67,2.09,4.67,4.67v158.22c0,2.58-2.09,4.67-4.67,4.67H85c-2.58,0-4.67-2.09-4.67-4.67V206.11z"/>
				<path class="st11" d="M82.99,184.11h131.14c1.47,0,2.65-1.19,2.65-2.65v-7.81c0-1.47-1.19-2.65-2.65-2.65H82.99
					c-1.47,0-2.65,1.19-2.65,2.65v7.81C80.33,182.92,81.52,184.11,82.99,184.11z"/>
				<path class="st12" d="M87,161.44h186c3.68,0,6.67-2.98,6.67-6.67v-28c0-3.68-2.98-6.67-6.67-6.67H87
					c-3.68,0-6.67,2.98-6.67,6.67v28C80.33,158.46,83.32,161.44,87,161.44z"/>
				<path class="st13" d="M85,369h282.22c2.58,0,4.67-2.09,4.67-4.67V206.11c0-2.58-2.09-4.67-4.67-4.67H85
					c-2.58,0-4.67,2.09-4.67,4.67v158.22C80.33,366.91,82.42,369,85,369z M362.56,349.01c0,1.47-1.19,2.65-2.65,2.65H228.76
					c-1.47,0-2.65-1.19-2.65-2.65v-7.81c0-1.47,1.19-2.65,2.65-2.65H359.9c1.47,0,2.65,1.19,2.65,2.65V349.01z M111.44,215.65
					c0-1.47,1.19-2.65,2.65-2.65h246.69c1.47,0,2.65,1.19,2.65,2.65v7.81c0,1.47-1.19,2.65-2.65,2.65H114.1
					c-1.47,0-2.65-1.19-2.65-2.65V215.65z M88.56,237.71c0-1.47,1.19-2.65,2.65-2.65h269.81c1.47,0,2.65,1.19,2.65,2.65v7.81
					c0,1.47-1.19,2.65-2.65,2.65H91.21c-1.47,0-2.65-1.19-2.65-2.65V237.71z M88.56,259.76c0-1.47,1.19-2.65,2.65-2.65h269.81
					c1.47,0,2.65,1.19,2.65,2.65v7.81c0,1.47-1.19,2.65-2.65,2.65H91.21c-1.47,0-2.65-1.19-2.65-2.65V259.76z M88.56,281.82
					c0-1.47,1.19-2.65,2.65-2.65h269.81c1.47,0,2.65,1.19,2.65,2.65v7.81c0,1.47-1.19,2.65-2.65,2.65H91.21
					c-1.47,0-2.65-1.19-2.65-2.65V281.82z M88.56,303.88c0-1.47,1.19-2.65,2.65-2.65h98.47c1.47,0,2.65,1.19,2.65,2.65v7.81
					c0,1.47-1.19,2.65-2.65,2.65H91.21c-1.47,0-2.65-1.19-2.65-2.65V303.88z"/>
				<path class="st14" d="M114.1,226.11h246.69c1.47,0,2.65-1.19,2.65-2.65v-7.81c0-1.47-1.19-2.65-2.65-2.65H114.1
					c-1.47,0-2.65,1.19-2.65,2.65v7.81C111.44,224.92,112.63,226.11,114.1,226.11z"/>
				<path class="st14" d="M91.21,248.17h269.81c1.47,0,2.65-1.19,2.65-2.65v-7.81c0-1.47-1.19-2.65-2.65-2.65H91.21
					c-1.47,0-2.65,1.19-2.65,2.65v7.81C88.56,246.98,89.74,248.17,91.21,248.17z"/>
				<path class="st14" d="M91.21,270.22h269.81c1.47,0,2.65-1.19,2.65-2.65v-7.81c0-1.47-1.19-2.65-2.65-2.65H91.21
					c-1.47,0-2.65,1.19-2.65,2.65v7.81C88.56,269.03,89.74,270.22,91.21,270.22z"/>
				<path class="st14" d="M91.21,292.28h269.81c1.47,0,2.65-1.19,2.65-2.65v-7.81c0-1.47-1.19-2.65-2.65-2.65H91.21
					c-1.47,0-2.65,1.19-2.65,2.65v7.81C88.56,291.09,89.74,292.28,91.21,292.28z"/>
				<path class="st14" d="M91.21,314.33h98.47c1.47,0,2.65-1.19,2.65-2.65v-7.81c0-1.47-1.19-2.65-2.65-2.65H91.21
					c-1.47,0-2.65,1.19-2.65,2.65v7.81C88.56,313.15,89.74,314.33,91.21,314.33z"/>
				<path class="st14" d="M359.9,338.56H228.76c-1.47,0-2.65,1.19-2.65,2.65v7.81c0,1.47,1.19,2.65,2.65,2.65H359.9
					c1.47,0,2.65-1.19,2.65-2.65v-7.81C362.56,339.74,361.37,338.56,359.9,338.56z"/>
			</g>
		</g>
	</g>
</g>
<g>
</g>
<g>
</g>
<g>
</g>
<g>
</g>
<g>
</g>
<g>
</g>
</svg>
