<?xml version="1.0" encoding="utf-8"?>
<!-- Generator: $$$/GeneralStr/196=Adobe Illustrator 27.6.0, SVG Export Plug-In . SVG Version: 6.00 Build 0)  -->
<svg version="1.1" id="图层_1" xmlns="http://www.w3.org/2000/svg" xmlns:xlink="http://www.w3.org/1999/xlink" x="0px" y="0px"
	 viewBox="0 0 500 600" style="enable-background:new 0 0 500 600;" xml:space="preserve">
<style type="text/css">
	.st0{fill:#B5B5B6;}
	.st1{fill:#2EA7E0;}
	.st2{fill:#DAD9ED;}
	.st3{fill:#F7C6DB;}
	.st4{fill:#E5EDA9;}
	.st5{fill:#42A8E0;}
	.st6{fill:#977EB8;}
</style>
<rect class="st0" width="500" height="600"/>
<path class="st1" d="M427.67,546.5H72.33c-8.47,0-15.33-6.86-15.33-15.33V75.83c0-8.47,6.86-15.33,15.33-15.33h355.33
	c8.47,0,15.33,6.86,15.33,15.33v455.33C443,539.64,436.14,546.5,427.67,546.5z"/>
<g>
	<g>
		<g>
			<path class="st2" d="M57,531.05c0,8.54,6.86,15.45,15.33,15.45h355.33c8.47,0,15.33-6.91,15.33-15.45V94H57V531.05z"/>
		</g>
	</g>
</g>
<rect x="80.33" y="201.44" class="st3" width="291.46" height="167.48"/>
<rect x="80.33" y="120.1" class="st4" width="199.34" height="41.34"/>
<rect x="80.34" y="171" class="st5" width="136.44" height="13.11"/>
<rect x="88.56" y="235.06" class="st6" width="275.11" height="13.11"/>
<rect x="88.56" y="257.11" class="st6" width="275.11" height="13.11"/>
<rect x="88.56" y="279.34" class="st6" width="275.11" height="13.11"/>
<rect x="88.51" y="301.22" class="st6" width="103.82" height="13.11"/>
<rect x="226.06" y="338.56" class="st6" width="136.49" height="13.11"/>
<rect x="111.76" y="213" class="st6" width="251.68" height="13.11"/>
</svg>
