<?xml version="1.0" encoding="utf-8"?>
<!-- Generator: Adobe Illustrator 26.5.0, SVG Export Plug-In . SVG Version: 6.00 Build 0)  -->
<svg version="1.1" id="图层_1" xmlns="http://www.w3.org/2000/svg" xmlns:xlink="http://www.w3.org/1999/xlink" x="0px" y="0px"
	 viewBox="0 0 500 500" style="enable-background:new 0 0 500 500;" xml:space="preserve">
<style type="text/css">
	.st0{fill:#808080;}
</style>
<path class="st0" d="M400.16,96.22c-7.45-6.03-17.12-8.6-26.59-7.05l-167.22,25.38c-19.07,2.88-34,19.79-34,38.5v162.1
	c-8.87-5.8-19.25-8.88-29.85-8.87c-29.69,0-53.76,23.5-53.76,52.51s24.07,52.51,53.76,52.51c29.67,0,53.74-23.5,53.74-52.51V209.7
	l191.12-28.96V285.2c-8.88-5.81-19.26-8.89-29.87-8.87c-29.67,0-53.74,23.52-53.74,52.53s24.07,52.51,53.74,52.51
	c29.69,0,53.76-23.5,53.76-52.51V120.44C411.25,110.93,407.22,102.1,400.16,96.22L400.16,96.22z M142.53,387.94
	c-16.47,0-29.87-13.08-29.87-29.17c0-16.1,13.4-29.19,29.87-29.19s29.85,13.1,29.85,29.19S158.99,387.94,142.53,387.94z
	 M196.24,186.07v-33.06c0-7.12,6.45-14.31,13.79-15.44l167.22-25.34c2.59-0.53,5.28,0.09,7.38,1.69c1.86,1.64,2.87,4.04,2.74,6.51
	v36.68l-191.12,28.92V186.07z M357.49,358.03c-16.47,0-29.85-13.08-29.85-29.17s13.38-29.17,29.85-29.17
	c16.47,0,29.87,13.08,29.87,29.17S373.96,358.03,357.49,358.03z"/>
</svg>
