<?xml version="1.0" encoding="utf-8"?>
<!-- Generator: $$$/GeneralStr/196=Adobe Illustrator 27.6.0, SVG Export Plug-In . SVG Version: 6.00 Build 0)  -->
<svg version="1.1" id="图层_1" xmlns="http://www.w3.org/2000/svg" xmlns:xlink="http://www.w3.org/1999/xlink" x="0px" y="0px"
	 viewBox="0 0 500 600" style="enable-background:new 0 0 500 600;" xml:space="preserve">
<style type="text/css">
	.st0{fill:#C7E8FA;}
	.st1{clip-path:url(#SVGID_00000016072346195850250270000000532054721373149103_);}
	.st2{fill:#7FC9F0;}
</style>
<g>
	<path class="st0" d="M476.11,434.78H36.34c-9.02,0-16.34-7.31-16.34-16.34v-232.9c0-9.02,7.31-16.34,16.34-16.34h439.77
		c9.02,0,16.34,7.31,16.34,16.34v232.9C492.45,427.46,485.14,434.78,476.11,434.78z"/>
	<g>
		<path d="M147.93,271.22h-0.76l-0.42-0.08l-0.67-0.08c-0.06-0.06-0.16-0.08-0.29-0.08c-0.14,0-0.24,0.08-0.29,0.25l-9.18-0.08
			c-0.34,0.11-0.62,0.08-0.84-0.08c-0.06,0-0.14,0.03-0.25,0.08c-0.11,0.06-0.42,0.08-0.93,0.08l-0.34-0.08l-0.25-0.17h-1.01
			l-0.67,0.08c-0.23,0-0.39-0.03-0.51-0.08c-0.11,0.06-0.37,0.08-0.76,0.08c-0.06,0-0.16-0.01-0.29-0.04
			c-0.14-0.03-0.25-0.04-0.34-0.04c-0.08,0-0.16,0.03-0.21,0.08c-0.17,0.11-0.28,0.17-0.34,0.17c-0.56-0.06-1.32-0.03-2.27,0.08
			l-1.85-0.08l-0.08-0.17c-0.67-0.11-1.12-0.42-1.35-0.93c-1.07-1.52-1.57-3.06-1.52-4.63v-1.01l0.42-0.5h-0.08l0.42-0.59
			c0-0.67,0.06-1.52,0.17-2.53l0.25-2.7v-1.43c0-0.11,0.01-0.28,0.04-0.5c0.03-0.22,0.04-0.41,0.04-0.55c0-0.14,0.01-0.42,0.04-0.84
			c0.03-0.42,0.04-0.74,0.04-0.97c0-1.29,0.06-2.53,0.17-3.71l0.25-2.53c0.17-0.62,0.2-1.38,0.08-2.27l0.76-8.08
			c0-1.35,0.03-2.19,0.08-2.53c0.11-1.01,0.17-1.85,0.17-2.53l0.76-7.75l1.09-10.02c0-0.06-0.03-0.17-0.08-0.34
			c-1.29,0.06-2.13-0.51-2.53-1.68c-0.17-1.18-0.34-1.99-0.51-2.44v-2.53c0.22-0.45,0.36-0.93,0.42-1.43l8.17,0.08l0.08,0.25
			l13.22,0.76c0.67-0.06,1.32-0.06,1.94,0c0.11,0,0.28,0.01,0.51,0.04c0.22,0.03,0.36,0.04,0.42,0.04c0.22,0.06,0.56,0.08,1.01,0.08
			h2.27l7.66,0.34c1.18,0.06,1.94,0.08,2.27,0.08h0.59c0.56,0,0.98,0.03,1.26,0.08h1.68c0.79,0,1.29,0.03,1.52,0.08h0.67
			c2.13,0.06,3.34,0.65,3.62,1.77c0.06,0.28,0.11,0.93,0.17,1.94v1.35c-0.06,1.74-0.67,2.64-1.85,2.69c-0.79,0-1.47-0.04-2.06-0.13
			c-0.59-0.08-1.19-0.13-1.81-0.13l-0.34,0.17h-1.6c-0.28,0-0.46-0.01-0.55-0.04c-0.08-0.03-0.16-0.07-0.21-0.13h-5.14
			c-0.45-0.22-1.04-0.34-1.77-0.34h-2.19c-2.19,0.11-3.71,0.03-4.55-0.25c-5.84-0.17-9.83-0.34-11.96-0.51
			c-1.07,0-2.16-0.06-3.28-0.17c-0.23,0-0.67-0.03-1.35-0.08c-0.45,0-0.73,0-0.84,0h-0.34l-1.85,19.45v3.28
			c0.62,0,1.29-0.03,2.02-0.08h9.6c0.39,0,1.38,0.03,2.95,0.08l10.11,0.34c1.52,0.06,2.47,0.08,2.86,0.08h4.38l2.61,0.17
			c0.56,0.06,1.18,0.08,1.85,0.08c0.17,0.06,0.31,0.08,0.42,0.08c1.35,0.17,2.05,0.76,2.11,1.77c0,0.06,0.03,0.28,0.08,0.67
			l0.25,1.35c0,0.34-0.11,1.29-0.34,2.86c-0.17,0.73-0.65,1.07-1.43,1.01h-0.25c-0.11,0.06-0.39,0.08-0.84,0.08h-0.93
			c-1.07,0-2.15-0.04-3.24-0.13c-1.09-0.08-2.15-0.13-3.16-0.13l-4.38-0.17c-5.95-0.28-11.82-0.42-17.6-0.42
			c-1.12,0-2.25,0.03-3.37,0.08c-0.06,0-0.14,0-0.25,0c-1.63,0.11-2.89,0.14-3.79,0.08l-0.76,9.43c0,1.8-0.06,3.42-0.17,4.88
			c-0.11,1.35-0.17,2.7-0.17,4.04l0.08,0.42h6.32c5.33,0,10.64-0.08,15.92-0.25l4.04-0.17c3.82-0.17,7.83-0.25,12.04-0.25h1.85
			c1.8,0.34,2.61,1.04,2.44,2.11l0.08,0.93l0.17,0.25v1.94c0,0.45-0.03,0.76-0.08,0.93c0,0.06,0,0.11,0,0.17
			c-0.06,0.22-0.08,0.37-0.08,0.42c-0.34,0.5-1.24,0.79-2.69,0.84c-1.68,0.11-3.28,0.17-4.8,0.17h-0.59l-0.51-0.17
			c-0.67,0-1.46,0.08-2.36,0.25c-0.06,0-0.17,0.01-0.34,0.04c-0.17,0.03-0.31,0.04-0.42,0.04c-0.56,0.11-1.07,0.17-1.52,0.17h-2.86
			c-0.34,0-0.59,0.03-0.76,0.08c-0.34,0.34-0.59,0.5-0.76,0.5c-0.51,0-0.84-0.03-1.01-0.08c-0.06,0-0.11-0.01-0.17-0.04
			c-0.06-0.03-0.11-0.04-0.17-0.04l-0.93-0.25c0,0.06-0.06,0.08-0.17,0.08c-0.17,0.17-0.34,0.22-0.51,0.17
			c-0.17,0.06-0.39,0.08-0.67,0.08l-0.84-0.17l-0.08-0.17h-0.5C148.43,270.97,148.21,271.05,147.93,271.22z"/>
		<path d="M175.38,252.27c-0.06-3.48,1.09-7.35,3.45-11.62l4.97-4.8c1.74-0.95,4.32-1.57,7.75-1.85c2.92-0.06,4.88,0.11,5.9,0.51
			c1.23,0.34,2.69,1.24,4.38,2.69c0.11-3.71,0.17-6.57,0.17-8.59l0.17-9.43c0-0.45,0.08-1.15,0.25-2.1
			c0.06-0.34,0.08-0.59,0.08-0.76c0.34-1.85,0.45-3.2,0.34-4.04l1.09-7.41h2.61c0.73,0.17,1.15,1.07,1.26,2.69v1.68l-0.76,5.39
			c-0.06,0.45-0.08,1.29-0.08,2.53c0.06,1.52-0.08,2.86-0.42,4.04v23.58c0.17,2.47,0.36,4.52,0.59,6.15l0.51,5.81
			c0.11,1.01,0.95,2.11,2.53,3.28h-0.08c0.11,0.11,0.22,0.17,0.34,0.17c0.22,0.06,0.56,0.31,1.01,0.76c0,0.06,0.03,0.11,0.08,0.17
			v0.08c0.62,1.68,0.93,3.28,0.93,4.8v0.59c-0.79,1.35-2.36,1.07-4.72-0.84l-1.26-1.43v0.08c-0.22-0.11-0.39-0.25-0.5-0.42
			c0,0.06-0.06,0.14-0.17,0.25l-0.51,0.84c0.06,0.34-0.17,0.65-0.67,0.93l-1.52,1.26c-0.11,0.11-0.28,0.25-0.5,0.42
			c-0.45,0.34-0.79,0.62-1.01,0.84c-0.9,0.79-2.5,1.54-4.8,2.27c-0.17,0.22-0.51,0.31-1.01,0.25h-1.26
			c-0.9,0.11-1.66,0.17-2.27,0.17h-0.84c-0.34,0-0.56-0.03-0.67-0.08c0-0.17-0.2-0.06-0.59,0.34l-0.08-0.25l-0.51,0.5
			c0.06-0.67-0.51-1.09-1.68-1.26c-0.45-0.06-0.87-0.11-1.26-0.17l-0.67-0.5v0.08c-0.62-0.34-1.4-0.84-2.36-1.52
			C178.16,264.71,175.43,259.35,175.38,252.27z M179.84,254.54c0.62,5.39,4.41,8.48,11.37,9.26c3.37-0.11,6.34-1.57,8.93-4.38
			c0.28-0.28,0.76-1.15,1.43-2.61c0.06-0.05,0.1-0.13,0.13-0.21c0.03-0.08,0.04-0.15,0.04-0.21c0.56-0.34,0.87-0.67,0.93-1.01
			l-0.17-0.5v0.08c-0.06-0.11-0.08-0.36-0.08-0.76l-0.76-10.44c0.06,0-0.08-0.11-0.42-0.34l-0.59-0.84l-0.34-0.67l-0.08-0.34
			c-1.18-1.35-2.92-2.02-5.22-2.02h-0.84l0.08-0.08l-0.42,0.34c-0.23,0-0.42-0.03-0.59-0.08c-0.06-0.06-0.11-0.08-0.17-0.08
			c-0.06,0-0.14-0.03-0.25-0.08c-2.75,0-5.36,1.29-7.83,3.87l-1.09,0.93l-0.93,1.52c-0.28,0.39-0.62,0.98-1.01,1.77
			c-0.17,0.28-0.28,0.48-0.34,0.59C180.43,250.81,179.84,252.92,179.84,254.54z"/>
		<path d="M222.46,260.02v-1.68l1.01-14.4c-0.28,0-0.7-0.01-1.26-0.04c-0.56-0.03-1.01-0.04-1.35-0.04
			c-0.96-0.06-1.99-0.08-3.12-0.08l-0.17-0.51v0.08c-1.12-1.63-1.68-3.37-1.68-5.22c0.06-1.07,0.51-1.63,1.35-1.68
			c0.06,0.06,0.18,0.1,0.38,0.13c0.2,0.03,0.46,0.04,0.8,0.04c2.19,0,4.21-0.34,6.06-1.01c1.12-0.73,2.22-1.23,3.28-1.52
			c0.39,0,0.67,0.06,0.84,0.17l0.76,0.34h0.25c0.73,0.84,1.12,1.8,1.18,2.86v1.85c0,0.67-0.03,1.18-0.08,1.52
			c-0.62,0.45-1.07,1.24-1.35,2.36c-0.06,0.06-0.1,0.14-0.13,0.25c-0.03,0.11-0.07,0.23-0.13,0.34c-0.06,0.11-0.08,0.28-0.08,0.51
			c-0.11,0.51-0.28,0.87-0.51,1.09l-0.76,7.75c0,1.01-0.08,2.92-0.25,5.73v0.42l-0.25,2.02c-0.17,1.12-0.23,1.77-0.17,1.94
			c1.68-1.23,3.17-1.85,4.46-1.85c2.41,0,3.59,1.54,3.54,4.63v0.84c-0.06,1.01-0.7,1.57-1.94,1.68c-0.06,0-0.18,0.03-0.38,0.08
			c-0.2,0.06-0.38,0.11-0.55,0.17v-0.08l-0.42,0.42c-1.52,1.46-3,2.16-4.46,2.11c-0.84,0.06-1.6-0.39-2.27-1.35
			c-1.07-1.46-1.77-2.89-2.11-4.29C222.62,264.34,222.46,262.49,222.46,260.02z M220.01,222.96v-0.17c-0.11-0.9,0.25-1.52,1.1-1.85
			c0.9,0,1.82,0.2,2.78,0.59l1.18,0.59h0.84c3.03,0.06,4.41,1.29,4.13,3.71v0.76c0.11,1.91-0.37,2.92-1.43,3.03
			c-0.06,0.06-0.14,0.11-0.25,0.17h-1.09c-1.74-0.11-3.4-0.51-4.97-1.18C221.11,227.09,220.35,225.21,220.01,222.96z"/>
		<path d="M247.3,254.63c0-4.55,0.79-9.88,2.36-16v-1.43c-0.17,0-0.28-0.03-0.34-0.08l-2.36-0.34c-0.34,0-0.62-0.06-0.84-0.17
			l-3.28-0.59l-1.18-0.25c-0.84-1.52-1.29-3.14-1.35-4.88v-1.01l0.34-0.67c0.34-0.51,0.79-0.76,1.35-0.76
			c2.7,0.84,5.67,1.26,8.93,1.26h0.34l4.55-17.35c0.11-1.07,0.62-1.52,1.52-1.35c1.68,0.06,2.55,1.18,2.61,3.37
			c0,1.12-0.25,2.53-0.76,4.21c-0.39,1.12-0.84,2.72-1.35,4.8l-0.34,1.6l-0.25,1.35l-0.34,1.94l-0.25,1.85
			c1.85,0.34,4.55,0.48,8.08,0.42c0.28,0,0.7-0.01,1.26-0.04c0.56-0.03,0.98-0.04,1.26-0.04h2.19c1.4,0.34,2.27,0.65,2.61,0.93
			c0.17,0.45,0.34,1.04,0.5,1.77c0.06,0.11,0.08,0.34,0.08,0.67v0.42c0,0.34-0.06,0.65-0.17,0.93c0,0.06-0.01,0.14-0.04,0.25
			c-0.03,0.11-0.04,0.2-0.04,0.25l-0.25,1.35c-0.06,0.34-0.37,0.56-0.93,0.67c0,0.06-0.03,0.08-0.08,0.08s-0.1,0-0.12,0
			c-0.03,0-0.09,0.01-0.17,0.04c-0.08,0.03-0.18,0.04-0.29,0.04c-0.39,0.06-1.04,0.08-1.94,0.08h-2.44
			c-3.71,0.06-7.36-0.08-10.95-0.42c-0.06,0.06-0.08,0.11-0.08,0.17c-0.06,0.17-0.08,0.31-0.08,0.42l-0.67,3.62l-0.59,2.95
			c-0.9,4.38-1.46,7.86-1.68,10.44v3.87l0.08,1.43l0.17,1.09c0.06,0.17,0.08,0.45,0.08,0.84h-0.17c0.17,0.28,0.34,0.73,0.5,1.35
			c0.28,0.06,0.69,0.17,1.22,0.34c0.53,0.17,0.94,0.28,1.22,0.34c0.95-0.22,2.13-1.12,3.54-2.7c0-0.05,0.03-0.11,0.08-0.17
			c0.06-0.06,0.08-0.13,0.08-0.21s0-0.15,0-0.21c0.62-2.13,1.26-3.2,1.94-3.2c2.53,0.28,3.96,2.25,4.29,5.9
			c-0.56,4.27-3.26,6.71-8.08,7.33c-2.58,0-4.67-1.05-6.27-3.16c-1.6-2.11-2.6-4.2-2.99-6.27
			C247.47,259.46,247.3,257.1,247.3,254.63z"/>
		<path d="M277.53,253.28c0.28-6.4,2.36-11.34,6.23-14.82v0.08c0.28-0.28,0.48-0.55,0.59-0.8c0.11-0.25,0.59-0.66,1.43-1.22
			c3.2-1.91,7.07-2.89,11.62-2.95c2.53,0.11,5.45,1.12,8.76,3.03c0.95,0.56,2.11,1.77,3.45,3.62c0.05,0.11,0.11,0.2,0.17,0.25
			c0.28,0.56,0.79,1.24,1.52,2.02c1.12,3.26,1.68,6.26,1.68,9.01c0,2.02-0.14,3.96-0.42,5.81c0,0.11-0.01,0.28-0.04,0.5
			c-0.03,0.23-0.04,0.37-0.04,0.42c-0.06,0.34-0.08,0.65-0.08,0.93c-0.06,0.79-0.23,1.43-0.51,1.94l-0.5,1.77
			c-2.08,5.62-7.78,8.37-17.1,8.25h-2.27C283.15,269.9,278.32,263.95,277.53,253.28z M282.5,255.05v1.43
			c2.25,3.93,5.45,5.98,9.6,6.15h1.94c0.39,0,0.87-0.03,1.43-0.08c0.06,0,0.11-0.03,0.17-0.08c0.34-0.34,1.04-0.5,2.11-0.5
			c0.28,0,0.51-0.03,0.67-0.08c0.79-0.06,1.61-0.18,2.48-0.38c0.87-0.2,1.7-0.63,2.48-1.31c3.14-2.3,4.72-5.67,4.72-10.11
			c-0.45-2.81-2.81-5.19-7.07-7.16c-0.17,0.06-0.34,0-0.51-0.17v0.08l-0.93-0.25h-1.35c-1.35-0.06-3.28,0.28-5.81,1.01l-1.43,0.34
			l-2.53,0.51l-0.84,0.59c-0.79,0.39-1.24,0.65-1.35,0.76h0.08C283.85,248.82,282.56,251.91,282.5,255.05z"/>
		<path d="M323.43,266.84V252.1c-0.06-0.67-0.14-1.26-0.25-1.77v-0.67l-0.76-8.76c-0.11-0.11-0.17-0.34-0.17-0.67
			c0-0.11-0.14-0.45-0.42-1.01c-0.11-0.11-0.17-0.2-0.17-0.25c-0.79-1.85-1.12-3.4-1.01-4.63c0.28-0.84,0.62-1.29,1.01-1.35
			c0.95,0.06,1.63,0.14,2.02,0.25l0.67,0.76v0.25c0.06,0.06,0.11,0.23,0.17,0.51c0-0.11,0.03-0.06,0.08,0.17l0.25,0.51
			c0.51,0.51,0.81,1.15,0.93,1.94c0.34,1.18,0.59,2.3,0.76,3.37l0.17,0.42v-0.08c0,0.06,0.03,0.11,0.08,0.17
			c0.11,0.23,0.2,0.48,0.25,0.76c2.41-4.21,5.81-6.34,10.19-6.4c3.82,0.62,5.95,1.43,6.4,2.44c-0.06,0-0.06,0.17,0,0.51
			c0.06,0.11,0.08,0.2,0.08,0.25c0,0.06,0.01,0.16,0.04,0.29c0.03,0.14,0.04,0.24,0.04,0.29v0.42l-0.17,0.34v0.42
			c0.22,1.97-0.34,2.92-1.68,2.86c-0.23,0-0.59-0.17-1.09-0.51h-4.13c-0.06,0.06-0.14,0.11-0.25,0.17l-1.52,0.67
			c-1.91,1.01-3.71,3.54-5.39,7.58c-0.28,0.11-0.51,0.34-0.67,0.67c-0.06,0.06-0.08,0.11-0.08,0.17c0,0.06-0.03,0.17-0.08,0.34
			l-0.5,1.77l-0.08,0.25v16.08l-0.76,0.42h-0.59c-1.4,0.11-2.36-0.79-2.86-2.7l-0.25-0.59l-0.17-0.42L323.43,266.84z"/>
	</g>
	<g>
		<path d="M41.3,242.94l1.55-12.4h-6.97c-2.85-0.25-4.4-2.06-4.65-5.42c0.25-3.35,1.8-5.16,4.65-5.42h8.52l1.94-17.43
			c0.51-3.35,2.45-5.04,5.81-5.04c4.13-0.25,5.81,2.07,5.04,6.97l-1.94,15.5h9.69l1.94-17.43c0.77-4.13,2.97-5.81,6.59-5.04
			c3.35,0.26,4.78,2.58,4.26,6.97l-1.94,15.5h6.97c3.1,0.26,4.78,2.07,5.04,5.42c-0.26,3.36-1.94,5.17-5.04,5.42h-8.14l-1.94,12.4
			h7.36c2.84,0.26,4.39,1.94,4.65,5.04c-0.26,3.36-1.81,5.17-4.65,5.42h-8.52l-2.32,17.43c-0.26,3.88-2.32,5.68-6.2,5.42
			c-3.36-0.52-4.91-2.97-4.65-7.36l1.94-15.5h-9.3l-2.32,17.43c-0.26,3.61-2.32,5.42-6.2,5.42c-3.62-0.26-5.04-2.71-4.26-7.36
			l1.94-15.5h-7.36c-2.84-0.25-4.39-2.06-4.65-5.42c0.25-3.1,1.8-4.78,4.65-5.04H41.3z M54.08,230.54l-1.55,12.4h9.3l1.55-12.4
			H54.08z"/>
	</g>
	<rect x="357.92" y="197.04" width="2.74" height="85.6"/>
</g>
<g>
	<defs>
		
			<rect id="SVGID_1_" x="225.81" y="-8.33" transform="matrix(0.8975 0.4411 -0.4411 0.8975 200.8492 -176.6867)" width="509.31" height="704"/>
	</defs>
	<clipPath id="SVGID_00000005269146694003474130000017487381140985811078_">
		<use xlink:href="#SVGID_1_"  style="overflow:visible;"/>
	</clipPath>
	<g style="clip-path:url(#SVGID_00000005269146694003474130000017487381140985811078_);">
		<path class="st2" d="M476.11,434.78H36.34c-9.02,0-16.34-7.31-16.34-16.34v-232.9c0-9.02,7.31-16.34,16.34-16.34h439.77
			c9.02,0,16.34,7.31,16.34,16.34v232.9C492.45,427.46,485.14,434.78,476.11,434.78z"/>
		<g>
			<path d="M164.26,249.36h-9.75v26.9h-11.43v-70.28h20.18c15.02,0.45,22.75,7.51,23.2,21.18
				C186.23,241.74,178.83,249.14,164.26,249.36z M164.26,217.08h-9.75v20.85h9.75c7.17,0.23,10.64-3.36,10.42-10.76
				C174.69,220.44,171.21,217.08,164.26,217.08z"/>
			<path d="M223.44,225.82l-5.04,10.76c-1.57-1.34-3.25-2.02-5.04-2.02c-4.93,0-7.4,4.37-7.4,13.11v28.58h-11.43v-52.46h11.43v4.71
				c2.69-3.81,5.6-5.72,8.74-5.72C218.28,222.58,221.2,223.59,223.44,225.82z"/>
			<path d="M257.07,257.43l11.1,3.36c-3.14,11.43-10.09,17.03-20.85,16.81c-14.12-0.45-21.41-9.42-21.86-26.9
				c0.67-17.93,7.96-27.35,21.86-28.25c13.9,0.45,20.96,9.87,21.19,28.25v3.7h-31.27c0.89,8.07,4.26,12.22,10.09,12.44
				C252.47,267.07,255.73,263.94,257.07,257.43z M237.57,243.65h18.83c-0.23-6.72-3.25-10.2-9.08-10.42
				C241.71,233.45,238.46,236.92,237.57,243.65z"/>
			<path d="M305.16,223.81h12.11l-18.5,52.46h-9.75l-17.49-52.46h12.11l10.42,36.99L305.16,223.81z"/>
			<path d="M324.33,205.98h11.77v13.45h-11.77V205.98z M324.33,223.81h11.77v52.46h-11.77V223.81z"/>
			<path d="M376.45,257.43l11.1,3.36c-3.14,11.43-10.09,17.03-20.85,16.81c-14.12-0.45-21.41-9.42-21.86-26.9
				c0.67-17.93,7.95-27.35,21.86-28.25c13.9,0.45,20.96,9.87,21.18,28.25v3.7h-31.27c0.89,8.07,4.26,12.22,10.09,12.44
				C371.85,267.07,375.1,263.94,376.45,257.43z M356.94,243.65h18.83c-0.23-6.72-3.25-10.2-9.08-10.42
				C361.09,233.45,357.83,236.92,356.94,243.65z"/>
			<path d="M453.45,223.81h12.11l-17.82,52.46h-12.11l-8.07-39.01l-8.74,39.01h-11.77l-16.14-52.46h11.77l9.75,39.68l9.42-39.68
				h12.11l8.74,39.34L453.45,223.81z"/>
		</g>
	</g>
</g>
<g>
</g>
<g>
</g>
<g>
</g>
<g>
</g>
<g>
</g>
<g>
</g>
</svg>
