<?xml version="1.0" encoding="utf-8"?>
<!-- Generator: $$$/GeneralStr/196=Adobe Illustrator 27.6.0, SVG Export Plug-In . SVG Version: 6.00 Build 0)  -->
<svg version="1.1" id="图层_1" xmlns="http://www.w3.org/2000/svg" xmlns:xlink="http://www.w3.org/1999/xlink" x="0px" y="0px"
	 viewBox="0 0 500 600" style="enable-background:new 0 0 500 600;" xml:space="preserve">
<style type="text/css">
	.st0{fill:#B5B5B6;}
	.st1{fill:#2EA7E0;}
	.st2{fill:#DAD9ED;}
	.st3{fill:#42A8E0;}
	.st4{fill:#E5EDA9;}
	.st5{fill:#977EB8;}
	.st6{fill:#F7C6DB;}
</style>
<rect class="st0" width="500" height="600"/>
<path class="st1" d="M427.67,546.5H72.33c-8.47,0-15.33-6.86-15.33-15.33V75.83c0-8.47,6.86-15.33,15.33-15.33h355.33
	c8.47,0,15.33,6.86,15.33,15.33v455.33C443,539.64,436.14,546.5,427.67,546.5z"/>
<g>
	<g>
		<g>
			<path class="st2" d="M57,531.05c0,8.54,6.86,15.45,15.33,15.45h355.33c8.47,0,15.33-6.91,15.33-15.45V94H57V531.05z"/>
		</g>
	</g>
</g>
<path class="st3" d="M214.12,184.11H82.99c-1.47,0-2.65-1.19-2.65-2.65v-7.81c0-1.47,1.19-2.65,2.65-2.65h131.14
	c1.47,0,2.65,1.19,2.65,2.65v7.81C216.78,182.92,215.59,184.11,214.12,184.11z"/>
<path class="st4" d="M273,161.44H87c-3.68,0-6.67-2.98-6.67-6.67v-28c0-3.68,2.98-6.67,6.67-6.67h186c3.68,0,6.67,2.98,6.67,6.67v28
	C279.67,158.46,276.68,161.44,273,161.44z"/>
<g>
	<path class="st4" d="M200.1,331.56h201.44c7.98,0,14.45,6.47,14.45,14.45v92.89c0,7.98-6.47,14.45-14.45,14.45H200.1
		c-7.98,0-14.45-6.47-14.45-14.45v-92.89C185.66,338.03,192.12,331.56,200.1,331.56z"/>
	<path class="st5" d="M392.87,358.21h-168.6c-1,0-1.81-0.81-1.81-1.81v-5.34c0-1,0.81-1.81,1.81-1.81h168.6c1,0,1.81,0.81,1.81,1.81
		v5.34C394.68,357.4,393.87,358.21,392.87,358.21z"/>
	<path class="st5" d="M393.02,373.29h-184.4c-1,0-1.81-0.81-1.81-1.81v-5.34c0-1,0.81-1.81,1.81-1.81h184.4c1,0,1.81,0.81,1.81,1.81
		v5.34C394.84,372.48,394.02,373.29,393.02,373.29z"/>
	<path class="st5" d="M284.56,388.36h-77c-0.42,0-0.76-0.81-0.76-1.81v-5.34c0-1,0.34-1.81,0.76-1.81h77c0.42,0,0.76,0.81,0.76,1.81
		v5.34C285.32,387.55,284.98,388.36,284.56,388.36z"/>
	<path class="st5" d="M393.17,403.44H224.11c-0.92,0-1.66-0.81-1.66-1.81v-5.34c0-1,0.75-1.81,1.66-1.81h169.06
		c0.92,0,1.66,0.81,1.66,1.81v5.34C394.84,402.62,394.09,403.44,393.17,403.44z"/>
	<path class="st5" d="M275.92,418.51h-67.3c-1,0-1.81-0.81-1.81-1.81v-5.34c0-1,0.81-1.81,1.81-1.81h67.3c1,0,1.81,0.81,1.81,1.81
		v5.34C277.73,417.7,276.93,418.51,275.92,418.51z"/>
	<path class="st5" d="M392.26,444.03h-89.63c-1,0-1.81-0.81-1.81-1.81v-5.34c0-1,0.81-1.81,1.81-1.81h89.63c1,0,1.81,0.81,1.81,1.81
		v5.34C394.08,443.21,393.26,444.03,392.26,444.03z"/>
	<path class="st5" d="M393.16,429.1h-44.81c-0.5,0-0.91-0.81-0.91-1.81v-5.34c0-1,0.41-1.81,0.91-1.81h44.81
		c0.5,0,0.91,0.81,0.91,1.81v5.34C394.07,428.29,393.67,429.1,393.16,429.1z"/>
</g>
<g>
	<path class="st6" d="M367.22,369H85c-2.58,0-4.67-2.09-4.67-4.67V206.11c0-2.58,2.09-4.67,4.67-4.67h282.22
		c2.58,0,4.67,2.09,4.67,4.67v158.22C371.89,366.91,369.8,369,367.22,369z"/>
	<path class="st5" d="M360.79,226.11H114.1c-1.47,0-2.65-1.19-2.65-2.65v-7.81c0-1.47,1.19-2.65,2.65-2.65h246.69
		c1.47,0,2.65,1.19,2.65,2.65v7.81C363.44,224.92,362.26,226.11,360.79,226.11z"/>
	<path class="st5" d="M361.01,248.17H91.21c-1.47,0-2.65-1.19-2.65-2.65v-7.81c0-1.47,1.19-2.65,2.65-2.65h269.81
		c1.47,0,2.65,1.19,2.65,2.65v7.81C363.67,246.98,362.48,248.17,361.01,248.17z"/>
	<path class="st5" d="M361.01,270.22H91.21c-1.47,0-2.65-1.19-2.65-2.65v-7.81c0-1.47,1.19-2.65,2.65-2.65h269.81
		c1.47,0,2.65,1.19,2.65,2.65v7.81C363.67,269.03,362.48,270.22,361.01,270.22z"/>
	<path class="st5" d="M361.01,292.28H91.21c-1.47,0-2.65-1.19-2.65-2.65v-7.81c0-1.47,1.19-2.65,2.65-2.65h269.81
		c1.47,0,2.65,1.19,2.65,2.65v7.81C363.67,291.09,362.48,292.28,361.01,292.28z"/>
	<path class="st5" d="M189.68,314.33H91.21c-1.47,0-2.65-1.19-2.65-2.65v-7.81c0-1.47,1.19-2.65,2.65-2.65h98.47
		c1.47,0,2.65,1.19,2.65,2.65v7.81C192.33,313.15,191.15,314.33,189.68,314.33z"/>
	<path class="st5" d="M359.9,351.67H228.76c-1.47,0-2.65-1.19-2.65-2.65v-7.81c0-1.47,1.19-2.65,2.65-2.65H359.9
		c1.47,0,2.65,1.19,2.65,2.65v7.81C362.56,350.48,361.37,351.67,359.9,351.67z"/>
</g>
</svg>
