<?xml version="1.0" encoding="utf-8"?>
<!-- Generator: $$$/GeneralStr/196=Adobe Illustrator 27.6.0, SVG Export Plug-In . SVG Version: 6.00 Build 0)  -->
<svg version="1.1" id="图层_1" xmlns="http://www.w3.org/2000/svg" xmlns:xlink="http://www.w3.org/1999/xlink" x="0px" y="0px"
	 viewBox="0 0 500 600" style="enable-background:new 0 0 500 600;" xml:space="preserve">
<style type="text/css">
	.st0{fill:#B5B5B6;}
	.st1{fill:#2EA7E0;}
	.st2{fill:#DAD9ED;}
	.st3{fill:#F7C6DB;}
	.st4{fill:#E5EDA9;}
	.st5{fill:#42A8E0;}
	.st6{fill:#977EB8;}
</style>
<rect class="st0" width="500" height="600"/>
<path class="st1" d="M427.67,546.5H72.33c-8.47,0-15.33-6.86-15.33-15.33V75.83c0-8.47,6.86-15.33,15.33-15.33h355.33
	c8.47,0,15.33,6.86,15.33,15.33v455.33C443,539.64,436.14,546.5,427.67,546.5z"/>
<g>
	<g>
		<g>
			<path class="st2" d="M57,531.05c0,8.54,6.86,15.45,15.33,15.45h355.33c8.47,0,15.33-6.91,15.33-15.45V94H57V531.05z"/>
		</g>
	</g>
</g>
<path class="st3" d="M341.9,368.92H110.22c-16.51,0-29.89-13.38-29.89-29.89V231.33c0-16.51,13.38-29.89,29.89-29.89H341.9
	c16.51,0,29.89,13.38,29.89,29.89v107.69C371.79,355.53,358.41,368.92,341.9,368.92z"/>
<path class="st4" d="M264.55,161.44H95.45c-8.35,0-15.12-6.77-15.12-15.12v-11.1c0-8.35,6.77-15.12,15.12-15.12h169.1
	c8.35,0,15.12,6.77,15.12,15.12v11.1C279.67,154.67,272.9,161.44,264.55,161.44z"/>
<path class="st5" d="M86.89,171h123.33c3.62,0,6.55,2.93,6.55,6.55l0,0c0,3.62-2.93,6.55-6.55,6.55H86.89
	c-3.62,0-6.55-2.93-6.55-6.55l0,0C80.34,173.93,83.27,171,86.89,171z"/>
<path class="st6" d="M357.11,248.17h-262c-3.62,0-6.55-2.93-6.55-6.55l0,0c0-3.62,2.93-6.55,6.55-6.55h262
	c3.62,0,6.55,2.93,6.55,6.55l0,0C363.67,245.24,360.74,248.17,357.11,248.17z"/>
<path class="st6" d="M357.11,270.22h-262c-3.62,0-6.55-2.93-6.55-6.55l0,0c0-3.62,2.93-6.55,6.55-6.55h262
	c3.62,0,6.55,2.93,6.55,6.55l0,0C363.67,267.29,360.74,270.22,357.11,270.22z"/>
<path class="st6" d="M357.11,292.45h-262c-3.62,0-6.55-2.93-6.55-6.55l0,0c0-3.62,2.93-6.55,6.55-6.55h262
	c3.62,0,6.55,2.93,6.55,6.55l0,0C363.67,289.51,360.74,292.45,357.11,292.45z"/>
<path class="st6" d="M185.77,314.33H95.06c-3.62,0-6.55-2.93-6.55-6.55l0,0c0-3.62,2.93-6.55,6.55-6.55h90.71
	c3.62,0,6.55,2.93,6.55,6.55l0,0C192.33,311.4,189.4,314.33,185.77,314.33z"/>
<path class="st6" d="M355.99,351.67H232.62c-3.62,0-6.55-2.93-6.55-6.55l0,0c0-3.62,2.93-6.55,6.55-6.55h123.38
	c3.62,0,6.55,2.93,6.55,6.55l0,0C362.55,348.74,359.62,351.67,355.99,351.67z"/>
<path class="st6" d="M356.89,226.11H118.31c-3.62,0-6.55-2.93-6.55-6.55l0,0c0-3.62,2.93-6.55,6.55-6.55h238.57
	c3.62,0,6.55,2.93,6.55,6.55l0,0C363.44,223.18,360.51,226.11,356.89,226.11z"/>
</svg>
